<mxfile host="app.diagrams.net" modified="2023-09-13T21:32:07.059Z" agent="Mozilla/5.0 (Windows NT 10.0; Win64; x64) AppleWebKit/537.36 (KHTML, like Gecko) Chrome/116.0.0.0 Safari/537.36" version="21.7.5" etag="GdNGgoEI_QmbSsxcK5SZ" type="github">
  <diagram name="Page-1" id="5wvJt9Ujv5uZ9KLNfujQ">
    <mxGraphModel>
      <root>
        <mxCell id="0" />
        <mxCell id="1" parent="0" />
      </root>
    </mxGraphModel>
  </diagram>
</mxfile>
